<?xml version="1.0" encoding="UTF-8" standalone="no"?>
<!-- Created with Inkscape (http://www.inkscape.org/) -->

<svg
   xmlns:dc="http://purl.org/dc/elements/1.1/"
   xmlns:cc="http://creativecommons.org/ns#"
   xmlns:rdf="http://www.w3.org/1999/02/22-rdf-syntax-ns#"
   xmlns:svg="http://www.w3.org/2000/svg"
   xmlns="http://www.w3.org/2000/svg"
   xmlns:sodipodi="http://sodipodi.sourceforge.net/DTD/sodipodi-0.dtd"
   xmlns:inkscape="http://www.inkscape.org/namespaces/inkscape"
   width="25mm"
   height="25mm"
   viewBox="0 0 88.582677 88.582677"
   id="svg2"
   version="1.1"
   inkscape:version="0.91 r13725"
   sodipodi:docname="jKurveFilled.svg">
  <defs
     id="defs4" />
  <sodipodi:namedview
     id="base"
     pagecolor="#ffffff"
     bordercolor="#666666"
     borderopacity="1.0"
     inkscape:pageopacity="0.0"
     inkscape:pageshadow="2"
     inkscape:zoom="3.959798"
     inkscape:cx="15.368166"
     inkscape:cy="45.228304"
     inkscape:document-units="px"
     inkscape:current-layer="layer1"
     showgrid="false"
     inkscape:showpageshadow="false"
     inkscape:window-width="1301"
     inkscape:window-height="744"
     inkscape:window-x="65"
     inkscape:window-y="24"
     inkscape:window-maximized="1"
     showborder="true" />
  <metadata
     id="metadata7">
    <rdf:RDF>
      <cc:Work
         rdf:about="">
        <dc:format>image/svg+xml</dc:format>
        <dc:type
           rdf:resource="http://purl.org/dc/dcmitype/StillImage" />
        <dc:title></dc:title>
      </cc:Work>
    </rdf:RDF>
  </metadata>
  <g
     inkscape:label="Ebene 1"
     inkscape:groupmode="layer"
     id="layer1"
     transform="translate(0,-963.77953)">
    <g
       id="g5837">
      <path
         sodipodi:nodetypes="aaaaaaaaaaaaaa"
         inkscape:connector-curvature="0"
         id="path3338"
         d="m 22.733118,974.00246 c 6.44666,-4.05808 9.375291,19.63044 16.321095,20.20269 4.802317,0.39565 7.544765,-9.99841 12.171665,-12.03564 6.1221,-2.69553 16.62327,-8.68614 19.087384,0.42987 2.071069,7.66191 -11.801049,9.82219 -11.065149,18.05352 0.972678,10.8794 15.029534,6.9918 18.257495,16.764 1.902269,5.7585 2.284168,15.5823 -1.106513,19.343 -6.880739,7.6312 -16.33878,-12.0968 -24.61996,-9.4568 -5.094536,1.6241 -7.326416,13.2135 -12.448293,14.6148 -6.175934,1.6896 -15.400644,0.2844 -17.980867,-8.5968 -1.290534,-4.442 4.436182,-8.5308 3.872801,-13.3252 -1.288288,-10.9636 -16.3634396,-12.6408 -15.214579,-23.64158 0.693575,-6.64118 9.110554,-3.54197 11.618407,-9.02668 1.669339,-3.65087 -1.564806,-11.64364 1.106514,-13.32518 z"
         style="fill:none;fill-rule:evenodd;stroke:#000000;stroke-width:1;stroke-linecap:butt;stroke-linejoin:miter;stroke-miterlimit:4;stroke-dasharray:none;stroke-opacity:1;marker-end:" />
      <path
         inkscape:connector-curvature="0"
         id="path4698"
         d="m 33.84011,1039.9878 2.525381,2.0203 -2.525381,2.5254"
         style="fill:none;fill-rule:evenodd;stroke:#000000;stroke-width:1px;stroke-linecap:butt;stroke-linejoin:miter;stroke-opacity:1" />
      <path
         inkscape:connector-curvature="0"
         id="path4700"
         d="M 47.982246,1030.3914 Z"
         style="fill:none;fill-rule:evenodd;stroke:#000000;stroke-width:1px;stroke-linecap:butt;stroke-linejoin:miter;stroke-opacity:1" />
      <path
         inkscape:connector-curvature="0"
         id="path4702"
         d="m 44.951788,1032.4117 2.525381,-1.5152 0,3.788"
         style="fill:none;fill-rule:evenodd;stroke:#000000;stroke-width:1px;stroke-linecap:butt;stroke-linejoin:miter;stroke-opacity:1" />
      <path
         inkscape:connector-curvature="0"
         id="path4704"
         d="m 60.609152,1033.6744 4.04061,0.5051 -0.757614,-3.283"
         style="fill:none;fill-rule:evenodd;stroke:#000000;stroke-width:1px;stroke-linecap:butt;stroke-linejoin:miter;stroke-opacity:1" />
      <path
         inkscape:connector-curvature="0"
         id="path4706"
         d="m 76.771593,1026.0982 1.515229,-3.788 2.525381,3.283"
         style="fill:none;fill-rule:evenodd;stroke:#000000;stroke-width:1px;stroke-linecap:butt;stroke-linejoin:miter;stroke-opacity:1" />
      <path
         inkscape:connector-curvature="0"
         id="path4708"
         d="m 61.871843,1008.6731 -1.010153,-3.5355 3.030458,0.5051"
         style="fill:none;fill-rule:evenodd;stroke:#000000;stroke-width:1px;stroke-linecap:butt;stroke-linejoin:miter;stroke-opacity:1" />
      <path
         inkscape:connector-curvature="0"
         id="path4710"
         d="m 63.892148,989.48021 4.293148,-0.75761 -0.505076,3.78807"
         style="fill:none;fill-rule:evenodd;stroke:#000000;stroke-width:1px;stroke-linecap:butt;stroke-linejoin:miter;stroke-opacity:1" />
      <path
         inkscape:connector-curvature="0"
         id="path4712"
         d="m 55.305851,978.116 -1.767766,3.03045 3.282995,0.75762"
         style="fill:none;fill-rule:evenodd;stroke:#000000;stroke-width:1px;stroke-linecap:butt;stroke-linejoin:miter;stroke-opacity:1" />
      <path
         inkscape:connector-curvature="0"
         id="path4714"
         d="m 42.426407,989.98529 -0.252539,2.27284 3.030458,0.25254"
         style="fill:none;fill-rule:evenodd;stroke:#000000;stroke-width:1px;stroke-linecap:butt;stroke-linejoin:miter;stroke-opacity:1" />
      <path
         inkscape:connector-curvature="0"
         id="path4716"
         d="m 30.052038,985.94468 0,-4.29315 3.282996,2.27284"
         style="fill:none;fill-rule:evenodd;stroke:#000000;stroke-width:1px;stroke-linecap:butt;stroke-linejoin:miter;stroke-opacity:1" />
      <path
         inkscape:connector-curvature="0"
         id="path4718"
         d="m 18.182746,988.21752 -1.767767,2.77792 3.282995,1.26269"
         style="fill:none;fill-rule:evenodd;stroke:#000000;stroke-width:1px;stroke-linecap:butt;stroke-linejoin:miter;stroke-opacity:1" />
      <path
         inkscape:connector-curvature="0"
         id="path4720"
         d="m 14.394674,1008.168 3.030457,0.2526 -0.505076,-2.7779"
         style="fill:none;fill-rule:evenodd;stroke:#000000;stroke-width:1px;stroke-linecap:butt;stroke-linejoin:miter;stroke-opacity:1" />
      <path
         inkscape:connector-curvature="0"
         id="path4722"
         d="m 23.233508,1022.5627 0.252539,2.7779 2.777919,-1.0101"
         style="fill:none;fill-rule:evenodd;stroke:#000000;stroke-width:1px;stroke-linecap:butt;stroke-linejoin:miter;stroke-opacity:1" />
      <path
         sodipodi:nodetypes="aaaaaaa"
         inkscape:connector-curvature="0"
         id="path5614"
         d="m 28.031733,1004.3799 c 0.392642,-5.76628 11.376234,-5.42209 16.920055,-3.788 7.022937,2.07 15.91489,8.3534 15.404826,15.6573 -0.221685,3.1744 -4.450138,6.4036 -7.576144,5.8084 -3.857472,-0.7345 -3.127692,-7.4908 -6.060915,-10.1015 -2.13886,-1.9037 -5.180581,-2.4464 -7.828682,-3.5356 -3.571855,-1.4691 -11.121519,-0.1873 -10.85914,-4.0406 z"
         style="fill:none;fill-rule:evenodd;stroke:#000000;stroke-width:1px;stroke-linecap:butt;stroke-linejoin:miter;stroke-opacity:1" />
      <path
         sodipodi:nodetypes="aaaaa"
         inkscape:connector-curvature="0"
         id="path5620"
         d="m 3.2829957,1013.9764 c 3.2861168,-2.6741 9.4682773,1.0551 11.8692923,4.5457 3.29174,4.7856 4.502225,13.7553 0,17.4251 -2.265019,1.8462 -6.5638302,0.3414 -8.5862965,-1.7677 -4.7221427,-4.9245 -8.5749479,-15.8968 -3.2829958,-20.2031 z"
         style="fill:none;fill-rule:evenodd;stroke:#000000;stroke-width:1px;stroke-linecap:butt;stroke-linejoin:miter;stroke-opacity:1" />
      <path
         style="fill:none;fill-rule:evenodd;stroke:#000000;stroke-width:1;stroke-linecap:butt;stroke-linejoin:miter;stroke-miterlimit:4;stroke-dasharray:none;stroke-opacity:1;marker-end:"
         d="m 22.733118,974.00246 c 6.44666,-4.05808 9.375291,19.63044 16.321095,20.20269 4.802317,0.39565 7.544765,-9.99841 12.171665,-12.03564 6.1221,-2.69553 16.62327,-8.68614 19.087384,0.42987 2.071069,7.66191 -11.801049,9.82219 -11.065149,18.05352 0.972678,10.8794 15.029534,6.9918 18.257495,16.764 1.902269,5.7585 2.284168,15.5823 -1.106513,19.343 -6.880739,7.6312 -16.33878,-12.0968 -24.61996,-9.4568 -5.094536,1.6241 -7.326416,13.2135 -12.448293,14.6148 -6.175934,1.6896 -15.400644,0.2844 -17.980867,-8.5968 -1.290534,-4.442 4.436182,-8.5308 3.872801,-13.3252 -1.288288,-10.9636 -16.3634396,-12.6408 -15.214579,-23.64158 0.693575,-6.64118 9.110554,-3.54197 11.618407,-9.02668 1.669339,-3.65087 -1.564806,-11.64364 1.106514,-13.32518 z"
         id="path5645"
         inkscape:connector-curvature="0"
         sodipodi:nodetypes="aaaaaaaaaaaaaa" />
      <path
         style="fill:none;fill-rule:evenodd;stroke:#000000;stroke-width:1px;stroke-linecap:butt;stroke-linejoin:miter;stroke-opacity:1"
         d="m 33.84011,1039.9878 2.525381,2.0203 -2.525381,2.5254"
         id="path5647"
         inkscape:connector-curvature="0" />
      <path
         style="fill:none;fill-rule:evenodd;stroke:#000000;stroke-width:1px;stroke-linecap:butt;stroke-linejoin:miter;stroke-opacity:1"
         d="M 47.982246,1030.3914 Z"
         id="path5649"
         inkscape:connector-curvature="0" />
      <path
         style="fill:none;fill-rule:evenodd;stroke:#000000;stroke-width:1px;stroke-linecap:butt;stroke-linejoin:miter;stroke-opacity:1"
         d="m 44.951788,1032.4117 2.525381,-1.5152 0,3.788"
         id="path5651"
         inkscape:connector-curvature="0" />
      <path
         style="fill:none;fill-rule:evenodd;stroke:#000000;stroke-width:1px;stroke-linecap:butt;stroke-linejoin:miter;stroke-opacity:1"
         d="m 60.609152,1033.6744 4.04061,0.5051 -0.757614,-3.283"
         id="path5653"
         inkscape:connector-curvature="0" />
      <path
         style="fill:none;fill-rule:evenodd;stroke:#000000;stroke-width:1px;stroke-linecap:butt;stroke-linejoin:miter;stroke-opacity:1"
         d="m 76.771593,1026.0982 1.515229,-3.788 2.525381,3.283"
         id="path5655"
         inkscape:connector-curvature="0" />
      <path
         style="fill:none;fill-rule:evenodd;stroke:#000000;stroke-width:1px;stroke-linecap:butt;stroke-linejoin:miter;stroke-opacity:1"
         d="m 61.871843,1008.6731 -1.010153,-3.5355 3.030458,0.5051"
         id="path5657"
         inkscape:connector-curvature="0" />
      <path
         style="fill:none;fill-rule:evenodd;stroke:#000000;stroke-width:1px;stroke-linecap:butt;stroke-linejoin:miter;stroke-opacity:1"
         d="m 63.892148,989.48021 4.293148,-0.75761 -0.505076,3.78807"
         id="path5659"
         inkscape:connector-curvature="0" />
      <path
         style="fill:none;fill-rule:evenodd;stroke:#000000;stroke-width:1px;stroke-linecap:butt;stroke-linejoin:miter;stroke-opacity:1"
         d="m 55.305851,978.116 -1.767766,3.03045 3.282995,0.75762"
         id="path5661"
         inkscape:connector-curvature="0" />
      <path
         style="fill:none;fill-rule:evenodd;stroke:#000000;stroke-width:1px;stroke-linecap:butt;stroke-linejoin:miter;stroke-opacity:1"
         d="m 42.426407,989.98529 -0.252539,2.27284 3.030458,0.25254"
         id="path5663"
         inkscape:connector-curvature="0" />
      <path
         style="fill:none;fill-rule:evenodd;stroke:#000000;stroke-width:1px;stroke-linecap:butt;stroke-linejoin:miter;stroke-opacity:1"
         d="m 30.052038,985.94468 0,-4.29315 3.282996,2.27284"
         id="path5665"
         inkscape:connector-curvature="0" />
      <path
         style="fill:none;fill-rule:evenodd;stroke:#000000;stroke-width:1px;stroke-linecap:butt;stroke-linejoin:miter;stroke-opacity:1"
         d="m 18.182746,988.21752 -1.767767,2.77792 3.282995,1.26269"
         id="path5667"
         inkscape:connector-curvature="0" />
      <path
         style="fill:none;fill-rule:evenodd;stroke:#000000;stroke-width:1px;stroke-linecap:butt;stroke-linejoin:miter;stroke-opacity:1"
         d="m 14.394674,1008.168 3.030457,0.2526 -0.505076,-2.7779"
         id="path5669"
         inkscape:connector-curvature="0" />
      <path
         style="fill:none;fill-rule:evenodd;stroke:#000000;stroke-width:1px;stroke-linecap:butt;stroke-linejoin:miter;stroke-opacity:1"
         d="m 23.233508,1022.5627 0.252539,2.7779 2.777919,-1.0101"
         id="path5671"
         inkscape:connector-curvature="0" />
      <path
         style="fill:none;fill-rule:evenodd;stroke:#000000;stroke-width:1px;stroke-linecap:butt;stroke-linejoin:miter;stroke-opacity:1"
         d="m 28.031733,1004.3799 c 0.392642,-5.76628 11.376234,-5.42209 16.920055,-3.788 7.022937,2.07 15.91489,8.3534 15.404826,15.6573 -0.221685,3.1744 -4.450138,6.4036 -7.576144,5.8084 -3.857472,-0.7345 -3.127692,-7.4908 -6.060915,-10.1015 -2.13886,-1.9037 -5.180581,-2.4464 -7.828682,-3.5356 -3.571855,-1.4691 -11.121519,-0.1873 -10.85914,-4.0406 z"
         id="path5673"
         inkscape:connector-curvature="0"
         sodipodi:nodetypes="aaaaaaa" />
      <path
         style="fill:none;fill-rule:evenodd;stroke:#000000;stroke-width:1px;stroke-linecap:butt;stroke-linejoin:miter;stroke-opacity:1"
         d="m 3.2829957,1013.9764 c 3.2861168,-2.6741 9.4682773,1.0551 11.8692923,4.5457 3.29174,4.7856 4.502225,13.7553 0,17.4251 -2.265019,1.8462 -6.5638302,0.3414 -8.5862965,-1.7677 -4.7221427,-4.9245 -8.5749479,-15.8968 -3.2829958,-20.2031 z"
         id="path5679"
         inkscape:connector-curvature="0"
         sodipodi:nodetypes="aaaaa" />
      <text
         sodipodi:linespacing="125%"
         id="text5825"
         y="1003.6224"
         x="38.385796"
         style="font-style:normal;font-variant:normal;font-weight:normal;font-stretch:normal;font-size:15px;line-height:125%;font-family:'Minion Pro';-inkscape-font-specification:'Minion Pro, Normal';text-align:start;letter-spacing:0px;word-spacing:0px;writing-mode:lr-tb;text-anchor:start;fill:#000000;fill-opacity:1;stroke:none;stroke-width:1px;stroke-linecap:butt;stroke-linejoin:miter;stroke-opacity:1"
         xml:space="preserve"><tspan
           y="1003.6224"
           x="38.385796"
           id="tspan5827"
           sodipodi:role="line">$\Lambda$</tspan></text>
    </g>
    <flowRoot
       xml:space="preserve"
       id="flowRoot5829"
       style="fill:black;stroke:none;stroke-opacity:1;stroke-width:1px;stroke-linejoin:miter;stroke-linecap:butt;fill-opacity:1;font-family:'Minion Pro';font-style:normal;font-weight:normal;font-size:15px;line-height:125%;letter-spacing:0px;word-spacing:0px;-inkscape-font-specification:'Minion Pro, Normal';font-stretch:normal;font-variant:normal;text-anchor:start;text-align:start;writing-mode:lr"><flowRegion
         id="flowRegion5831"><rect
           id="rect5833"
           width="23.738585"
           height="32.324883"
           x="-22.475893"
           y="-10.412271" /></flowRegion><flowPara
         id="flowPara5835"></flowPara></flowRoot>  </g>
</svg>
