<?xml version="1.0" encoding="UTF-8" standalone="no"?>
<!-- Created with Inkscape (http://www.inkscape.org/) -->

<svg
   xmlns:dc="http://purl.org/dc/elements/1.1/"
   xmlns:cc="http://creativecommons.org/ns#"
   xmlns:rdf="http://www.w3.org/1999/02/22-rdf-syntax-ns#"
   xmlns:svg="http://www.w3.org/2000/svg"
   xmlns="http://www.w3.org/2000/svg"
   xmlns:sodipodi="http://sodipodi.sourceforge.net/DTD/sodipodi-0.dtd"
   xmlns:inkscape="http://www.inkscape.org/namespaces/inkscape"
   width="25mm"
   height="25mm"
   viewBox="0 0 88.582677 88.582677"
   id="svg2"
   version="1.1"
   inkscape:version="0.91 r13725"
   sodipodi:docname="jKurve.svg">
  <defs
     id="defs4" />
  <sodipodi:namedview
     id="base"
     pagecolor="#ffffff"
     bordercolor="#666666"
     borderopacity="1.0"
     inkscape:pageopacity="0.0"
     inkscape:pageshadow="2"
     inkscape:zoom="3.959798"
     inkscape:cx="5.2841689"
     inkscape:cy="65.431355"
     inkscape:document-units="px"
     inkscape:current-layer="layer1"
     showgrid="false"
     inkscape:showpageshadow="false"
     inkscape:window-width="1301"
     inkscape:window-height="744"
     inkscape:window-x="65"
     inkscape:window-y="24"
     inkscape:window-maximized="1"
     showborder="true" />
  <metadata
     id="metadata7">
    <rdf:RDF>
      <cc:Work
         rdf:about="">
        <dc:format>image/svg+xml</dc:format>
        <dc:type
           rdf:resource="http://purl.org/dc/dcmitype/StillImage" />
        <dc:title></dc:title>
      </cc:Work>
    </rdf:RDF>
  </metadata>
  <g
     inkscape:label="Ebene 1"
     inkscape:groupmode="layer"
     id="layer1"
     transform="translate(0,-963.77953)">
    <path
       style="fill:none;fill-rule:evenodd;stroke:#000000;stroke-width:1.00004768;stroke-linecap:butt;stroke-linejoin:miter;stroke-miterlimit:4;stroke-dasharray:none;stroke-opacity:1"
       d="m 22.733118,974.00246 c 6.44666,-4.05808 9.375291,19.63044 16.321095,20.20269 4.802317,0.39565 7.544765,-9.99841 12.171665,-12.03564 6.1221,-2.69553 16.62327,-8.68614 19.087384,0.42987 2.071069,7.66191 -11.801049,9.82219 -11.065149,18.05352 0.972678,10.8794 15.029534,6.9918 18.257495,16.764 1.902269,5.7585 2.284168,15.5823 -1.106513,19.343 -6.880739,7.6312 -16.33878,-12.0968 -24.61996,-9.4568 -5.094536,1.6241 -7.326416,13.2135 -12.448293,14.6148 -6.175934,1.6896 -15.400644,0.2844 -17.980867,-8.5968 -1.290534,-4.442 4.436182,-8.5308 3.872801,-13.3252 -1.288288,-10.9636 -16.3634396,-12.6408 -15.214579,-23.64158 0.693575,-6.64118 9.110554,-3.54197 11.618407,-9.02668 1.669339,-3.65087 -1.564806,-11.64364 1.106514,-13.32518 z"
       id="path3338"
       inkscape:connector-curvature="0"
       sodipodi:nodetypes="aaaaaaaaaaaaaa" />
  </g>
</svg>
