<?xml version="1.0" encoding="UTF-8" standalone="no"?>
<!-- Created with Inkscape (http://www.inkscape.org/) -->

<svg
   xmlns:dc="http://purl.org/dc/elements/1.1/"
   xmlns:cc="http://creativecommons.org/ns#"
   xmlns:rdf="http://www.w3.org/1999/02/22-rdf-syntax-ns#"
   xmlns:svg="http://www.w3.org/2000/svg"
   xmlns="http://www.w3.org/2000/svg"
   xmlns:sodipodi="http://sodipodi.sourceforge.net/DTD/sodipodi-0.dtd"
   xmlns:inkscape="http://www.inkscape.org/namespaces/inkscape"
   width="25mm"
   height="25mm"
   viewBox="0 0 88.582677 88.582677"
   id="svg2"
   version="1.1"
   inkscape:version="0.91 r13725"
   sodipodi:docname="jKurveOrientiert.svg">
  <defs
     id="defs4" />
  <sodipodi:namedview
     id="base"
     pagecolor="#ffffff"
     bordercolor="#666666"
     borderopacity="1.0"
     inkscape:pageopacity="0.0"
     inkscape:pageshadow="2"
     inkscape:zoom="3.959798"
     inkscape:cx="6.0417833"
     inkscape:cy="65.431355"
     inkscape:document-units="px"
     inkscape:current-layer="layer1"
     showgrid="false"
     inkscape:showpageshadow="false"
     inkscape:window-width="1301"
     inkscape:window-height="744"
     inkscape:window-x="65"
     inkscape:window-y="24"
     inkscape:window-maximized="1"
     showborder="true" />
  <metadata
     id="metadata7">
    <rdf:RDF>
      <cc:Work
         rdf:about="">
        <dc:format>image/svg+xml</dc:format>
        <dc:type
           rdf:resource="http://purl.org/dc/dcmitype/StillImage" />
        <dc:title></dc:title>
      </cc:Work>
    </rdf:RDF>
  </metadata>
  <g
     inkscape:label="Ebene 1"
     inkscape:groupmode="layer"
     id="layer1"
     transform="translate(0,-963.77953)">
    <path
       style="fill:none;fill-rule:evenodd;stroke:#000000;stroke-width:1;stroke-linecap:butt;stroke-linejoin:miter;stroke-miterlimit:4;stroke-dasharray:none;stroke-opacity:1;marker-end:"
       d="m 22.733118,974.00246 c 6.44666,-4.05808 9.375291,19.63044 16.321095,20.20269 4.802317,0.39565 7.544765,-9.99841 12.171665,-12.03564 6.1221,-2.69553 16.62327,-8.68614 19.087384,0.42987 2.071069,7.66191 -11.801049,9.82219 -11.065149,18.05352 0.972678,10.8794 15.029534,6.9918 18.257495,16.764 1.902269,5.7585 2.284168,15.5823 -1.106513,19.343 -6.880739,7.6312 -16.33878,-12.0968 -24.61996,-9.4568 -5.094536,1.6241 -7.326416,13.2135 -12.448293,14.6148 -6.175934,1.6896 -15.400644,0.2844 -17.980867,-8.5968 -1.290534,-4.442 4.436182,-8.5308 3.872801,-13.3252 -1.288288,-10.9636 -16.3634396,-12.6408 -15.214579,-23.64158 0.693575,-6.64118 9.110554,-3.54197 11.618407,-9.02668 1.669339,-3.65087 -1.564806,-11.64364 1.106514,-13.32518 z"
       id="path3338"
       inkscape:connector-curvature="0"
       sodipodi:nodetypes="aaaaaaaaaaaaaa" />
    <path
       style="fill:none;fill-rule:evenodd;stroke:#000000;stroke-width:1px;stroke-linecap:butt;stroke-linejoin:miter;stroke-opacity:1"
       d="m 33.84011,1039.9878 2.525381,2.0203 -2.525381,2.5254"
       id="path4698"
       inkscape:connector-curvature="0" />
    <path
       style="fill:none;fill-rule:evenodd;stroke:#000000;stroke-width:1px;stroke-linecap:butt;stroke-linejoin:miter;stroke-opacity:1"
       d="M 47.982246,1030.3914 Z"
       id="path4700"
       inkscape:connector-curvature="0" />
    <path
       style="fill:none;fill-rule:evenodd;stroke:#000000;stroke-width:1px;stroke-linecap:butt;stroke-linejoin:miter;stroke-opacity:1"
       d="m 44.951788,1032.4117 2.525381,-1.5152 0,3.788"
       id="path4702"
       inkscape:connector-curvature="0" />
    <path
       style="fill:none;fill-rule:evenodd;stroke:#000000;stroke-width:1px;stroke-linecap:butt;stroke-linejoin:miter;stroke-opacity:1"
       d="m 60.609152,1033.6744 4.04061,0.5051 -0.757614,-3.283"
       id="path4704"
       inkscape:connector-curvature="0" />
    <path
       style="fill:none;fill-rule:evenodd;stroke:#000000;stroke-width:1px;stroke-linecap:butt;stroke-linejoin:miter;stroke-opacity:1"
       d="m 76.771593,1026.0982 1.515229,-3.788 2.525381,3.283"
       id="path4706"
       inkscape:connector-curvature="0" />
    <path
       style="fill:none;fill-rule:evenodd;stroke:#000000;stroke-width:1px;stroke-linecap:butt;stroke-linejoin:miter;stroke-opacity:1"
       d="m 61.871843,1008.6731 -1.010153,-3.5355 3.030458,0.5051"
       id="path4708"
       inkscape:connector-curvature="0" />
    <path
       style="fill:none;fill-rule:evenodd;stroke:#000000;stroke-width:1px;stroke-linecap:butt;stroke-linejoin:miter;stroke-opacity:1"
       d="m 63.892148,989.48021 4.293148,-0.75761 -0.505076,3.78807"
       id="path4710"
       inkscape:connector-curvature="0" />
    <path
       style="fill:none;fill-rule:evenodd;stroke:#000000;stroke-width:1px;stroke-linecap:butt;stroke-linejoin:miter;stroke-opacity:1"
       d="m 55.305851,978.116 -1.767766,3.03045 3.282995,0.75762"
       id="path4712"
       inkscape:connector-curvature="0" />
    <path
       style="fill:none;fill-rule:evenodd;stroke:#000000;stroke-width:1px;stroke-linecap:butt;stroke-linejoin:miter;stroke-opacity:1"
       d="m 42.426407,989.98529 -0.252539,2.27284 3.030458,0.25254"
       id="path4714"
       inkscape:connector-curvature="0" />
    <path
       style="fill:none;fill-rule:evenodd;stroke:#000000;stroke-width:1px;stroke-linecap:butt;stroke-linejoin:miter;stroke-opacity:1"
       d="m 30.052038,985.94468 0,-4.29315 3.282996,2.27284"
       id="path4716"
       inkscape:connector-curvature="0" />
    <path
       style="fill:none;fill-rule:evenodd;stroke:#000000;stroke-width:1px;stroke-linecap:butt;stroke-linejoin:miter;stroke-opacity:1"
       d="m 18.182746,988.21752 -1.767767,2.77792 3.282995,1.26269"
       id="path4718"
       inkscape:connector-curvature="0" />
    <path
       style="fill:none;fill-rule:evenodd;stroke:#000000;stroke-width:1px;stroke-linecap:butt;stroke-linejoin:miter;stroke-opacity:1"
       d="m 14.394674,1008.168 3.030457,0.2526 -0.505076,-2.7779"
       id="path4720"
       inkscape:connector-curvature="0" />
    <path
       style="fill:none;fill-rule:evenodd;stroke:#000000;stroke-width:1px;stroke-linecap:butt;stroke-linejoin:miter;stroke-opacity:1"
       d="m 23.233508,1022.5627 0.252539,2.7779 2.777919,-1.0101"
       id="path4722"
       inkscape:connector-curvature="0" />
  </g>
</svg>
