<?xml version="1.0" encoding="UTF-8" standalone="no"?>
<!-- Created with Inkscape (http://www.inkscape.org/) -->

<svg
   xmlns:dc="http://purl.org/dc/elements/1.1/"
   xmlns:cc="http://creativecommons.org/ns#"
   xmlns:rdf="http://www.w3.org/1999/02/22-rdf-syntax-ns#"
   xmlns:svg="http://www.w3.org/2000/svg"
   xmlns="http://www.w3.org/2000/svg"
   xmlns:sodipodi="http://sodipodi.sourceforge.net/DTD/sodipodi-0.dtd"
   xmlns:inkscape="http://www.inkscape.org/namespaces/inkscape"
   width="25mm"
   height="25mm"
   viewBox="0 0 88.582677 88.582677"
   id="svg2"
   version="1.1"
   inkscape:version="0.91 r13725"
   sodipodi:docname="jordan1.svg">
  <defs
     id="defs4" />
  <sodipodi:namedview
     id="base"
     pagecolor="#ffffff"
     bordercolor="#666666"
     borderopacity="1.0"
     inkscape:pageopacity="0.0"
     inkscape:pageshadow="2"
     inkscape:zoom="3.959798"
     inkscape:cx="32.305749"
     inkscape:cy="65.431355"
     inkscape:document-units="px"
     inkscape:current-layer="layer1"
     showgrid="false"
     inkscape:showpageshadow="false"
     inkscape:window-width="1301"
     inkscape:window-height="744"
     inkscape:window-x="65"
     inkscape:window-y="24"
     inkscape:window-maximized="1" />
  <metadata
     id="metadata7">
    <rdf:RDF>
      <cc:Work
         rdf:about="">
        <dc:format>image/svg+xml</dc:format>
        <dc:type
           rdf:resource="http://purl.org/dc/dcmitype/StillImage" />
        <dc:title></dc:title>
      </cc:Work>
    </rdf:RDF>
  </metadata>
  <g
     inkscape:label="Ebene 1"
     inkscape:groupmode="layer"
     id="layer1"
     transform="translate(0,-963.77953)">
    <path
       style="fill:none;fill-rule:evenodd;stroke:#000000;stroke-width:1;stroke-linecap:butt;stroke-linejoin:miter;stroke-opacity:1;stroke-miterlimit:4;stroke-dasharray:none"
       d="m 22.463005,985.86113 c 6.48913,-2.62879 9.437054,12.71649 16.428616,13.08719 4.833953,0.2563 7.594468,-6.47691 12.251848,-7.79661 6.162431,-1.74616 16.732779,-5.62684 19.213127,0.27845 2.084712,4.96335 -11.878793,6.36276 -11.138045,11.69494 0.979087,7.0477 15.128545,4.5293 18.377773,10.8596 1.914799,3.7304 2.299214,10.0942 -1.113803,12.5303 -6.926067,4.9435 -16.446416,-7.8362 -24.782149,-6.126 -5.1281,1.0521 -7.374683,8.5596 -12.5303,9.4673 -6.216619,1.0946 -15.502099,0.1843 -18.099321,-5.5689 -1.299036,-2.8775 4.465407,-5.5262 3.898314,-8.632 -1.296776,-7.1021 -16.4712387,-8.1886 -15.3148097,-15.3149 0.6981447,-4.30208 9.1705727,-2.29442 11.6949467,-5.84739 1.680337,-2.36502 -1.575114,-7.54268 1.113803,-8.63198 z"
       id="path3338"
       inkscape:connector-curvature="0"
       sodipodi:nodetypes="aaaaaaaaaaaaaa" />
    <rect
       style="opacity:1;fill:none;fill-opacity:1;stroke:#000000;stroke-width:1;stroke-linecap:round;stroke-miterlimit:4;stroke-dasharray:none;stroke-dashoffset:0;stroke-opacity:1"
       id="rect3340"
       width="88.640884"
       height="88.388351"
       x="0"
       y="963.72131" />
  </g>
</svg>
