<?xml version="1.0" encoding="UTF-8" standalone="no"?>
<!-- Created with Inkscape (http://www.inkscape.org/) -->

<svg
   xmlns:dc="http://purl.org/dc/elements/1.1/"
   xmlns:cc="http://creativecommons.org/ns#"
   xmlns:rdf="http://www.w3.org/1999/02/22-rdf-syntax-ns#"
   xmlns:svg="http://www.w3.org/2000/svg"
   xmlns="http://www.w3.org/2000/svg"
   xmlns:sodipodi="http://sodipodi.sourceforge.net/DTD/sodipodi-0.dtd"
   xmlns:inkscape="http://www.inkscape.org/namespaces/inkscape"
   width="210mm"
   height="297mm"
   viewBox="0 0 744.09448819 1052.3622047"
   id="svg2"
   version="1.1"
   inkscape:version="0.91 r13725"
   sodipodi:docname="Zeichnung.svg">
  <defs
     id="defs4">
    <inkscape:path-effect
       effect="spiro"
       id="path-effect4293"
       is_visible="true" />
    <inkscape:path-effect
       effect="spiro"
       id="path-effect4289"
       is_visible="true" />
    <inkscape:path-effect
       effect="spiro"
       id="path-effect4285"
       is_visible="true" />
    <inkscape:path-effect
       effect="spiro"
       id="path-effect4281"
       is_visible="true" />
    <inkscape:path-effect
       effect="curvestitching"
       id="path-effect4275"
       is_visible="true"
       count="30"
       startpoint_edge_variation="0;1"
       startpoint_spacing_variation="0;1"
       endpoint_edge_variation="0;1"
       endpoint_spacing_variation="0;1"
       strokepath="m -344.08677,179.83375 c 661.92652,571.59732 1041.43612,295.95251 1270.35576,0"
       prop_scale="1"
       scale_y_rel="false"
       strokepath-nodetypes="cc" />
    <inkscape:path-effect
       effect="curvestitching"
       id="path-effect4268"
       is_visible="true"
       count="30"
       startpoint_edge_variation="0;1"
       startpoint_spacing_variation="0;1"
       endpoint_edge_variation="0;1"
       endpoint_spacing_variation="0;1"
       strokepath="m -382,261.0899 c 320.280412,220.18859 583.31322,321.62645 930,-18"
       prop_scale="1"
       scale_y_rel="false"
       strokepath-nodetypes="cc" />
    <inkscape:path-effect
       effect="curvestitching"
       id="path-effect3421"
       is_visible="true"
       count="30"
       startpoint_edge_variation="0;1"
       startpoint_spacing_variation="0;1"
       endpoint_edge_variation="0;1"
       endpoint_spacing_variation="0;1"
       strokepath="m -164,225.3622 c 1376.07,-93.01675 -172.76686,420.51518 970,218"
       prop_scale="1"
       scale_y_rel="false"
       strokepath-nodetypes="cc" />
    <inkscape:path-effect
       effect="curvestitching"
       id="path-effect3413"
       is_visible="true"
       count="30"
       startpoint_edge_variation="0;1"
       startpoint_spacing_variation="0;1"
       endpoint_edge_variation="0;1"
       endpoint_spacing_variation="0;1"
       strokepath="m 4,-435.6378 c 1293.0769,-208.24668 -474.0486,525.79826 706,104"
       prop_scale="1"
       scale_y_rel="false"
       strokepath-nodetypes="cc" />
  </defs>
  <sodipodi:namedview
     id="base"
     pagecolor="#ffffff"
     bordercolor="#666666"
     borderopacity="1.0"
     inkscape:pageopacity="0.0"
     inkscape:pageshadow="2"
     inkscape:zoom="0.35355339"
     inkscape:cx="578.95551"
     inkscape:cy="502.72875"
     inkscape:document-units="px"
     inkscape:current-layer="layer1"
     showgrid="false"
     inkscape:showpageshadow="false"
     inkscape:snap-text-baseline="true"
     inkscape:window-width="1301"
     inkscape:window-height="744"
     inkscape:window-x="65"
     inkscape:window-y="924"
     inkscape:window-maximized="1"
     inkscape:snap-center="true"
     showguides="true">
    <inkscape:grid
       type="xygrid"
       id="grid4253" />
  </sodipodi:namedview>
  <metadata
     id="metadata7">
    <rdf:RDF>
      <cc:Work
         rdf:about="">
        <dc:format>image/svg+xml</dc:format>
        <dc:type
           rdf:resource="http://purl.org/dc/dcmitype/StillImage" />
        <dc:title></dc:title>
      </cc:Work>
    </rdf:RDF>
  </metadata>
  <g
     inkscape:label="Ebene 1"
     inkscape:groupmode="layer"
     id="layer1">
    <text
       xml:space="preserve"
       style="font-style:normal;font-variant:normal;font-weight:normal;font-stretch:normal;font-size:23.61812782px;line-height:125%;font-family:'Minion Pro';-inkscape-font-specification:'Minion Pro, Normal';text-align:end;letter-spacing:0px;word-spacing:0px;writing-mode:lr-tb;text-anchor:end;fill:#000000;fill-opacity:1;stroke:none;stroke-width:1px;stroke-linecap:butt;stroke-linejoin:miter;stroke-opacity:1"
       x="696.00385"
       y="420.58228"
       id="text4144"
       sodipodi:linespacing="125%"><tspan
         sodipodi:role="line"
         id="tspan4146"
         x="696.00385"
         y="420.58228"
         style="font-style:normal;font-variant:normal;font-weight:normal;font-stretch:normal;font-size:22.5px;line-height:125%;font-family:'The Sans Semi Bold-';-inkscape-font-specification:'The Sans Semi Bold-, Normal';text-align:end;writing-mode:lr-tb;text-anchor:end">„Weniger ist mehr.“</tspan><tspan
         sodipodi:role="line"
         x="696.00385"
         y="448.70728"
         style="font-style:normal;font-variant:normal;font-weight:normal;font-stretch:normal;font-size:22.5px;line-height:125%;font-family:'The Sans Semi Bold-';-inkscape-font-specification:'The Sans Semi Bold-, Normal';text-align:end;writing-mode:lr-tb;text-anchor:end"
         id="tspan3401" /><tspan
         sodipodi:role="line"
         x="696.00385"
         y="476.83228"
         style="font-style:normal;font-variant:normal;font-weight:normal;font-stretch:normal;font-size:22.5px;line-height:125%;font-family:'The Sans Semi Bold-';-inkscape-font-specification:'The Sans Semi Bold-, Normal';text-align:end;writing-mode:lr-tb;text-anchor:end"
         id="tspan3403">Eigenpaarfilterung am Beispiel hermitesch</tspan><tspan
         sodipodi:role="line"
         x="696.00385"
         y="504.95728"
         style="font-style:normal;font-variant:normal;font-weight:normal;font-stretch:normal;font-size:22.5px;line-height:125%;font-family:'The Sans Semi Bold-';-inkscape-font-specification:'The Sans Semi Bold-, Normal';text-align:end;writing-mode:lr-tb;text-anchor:end"
         id="tspan3405">positiv definiter Eigenwertprobleme</tspan></text>
    <g
       transform="matrix(1.0222246,0,0,-1.0222246,488.68429,970.7666)"
       inkscape:label="ink_ext_XXXXXX"
       id="g3351">
      <g
         transform="scale(0.1,0.1)"
         id="g3353">
        <path
           inkscape:connector-curvature="0"
           id="path3355"
           style="fill:#e51b24;fill-opacity:1;fill-rule:nonzero;stroke:none"
           d="m 1635.87,131.645 c 79.91,0 137.33,23.722 181.92,53.593 41.58,27.864 73.81,60.832 98.53,103.36 31.96,54.972 41.8,106.066 44.5,135.703 0.01,0.246 58.71,617.859 58.71,617.859 l -296.23,0.02 c 0,0 -87.52,-910.535 -87.43,-910.535" />
        <path
           inkscape:connector-curvature="0"
           id="path3357"
           style="fill:#e51b24;fill-opacity:1;fill-rule:nonzero;stroke:none"
           d="m 1355.6,835.18 -40.11,-416.602 c -7.38,-99.695 30,-150.918 53.26,-177.91 42.49,-49.285 120.61,-88.035 210.83,-104.199 2.5,26.496 80.22,832.902 80.22,833.047 2.7,41.394 -9.36,77.594 -36.97,109.144 -32.21,36.79 -79.87,47.81 -99.55,47.81 l -708.296,-0.08 c -53.281,0 -133.386,-54.07 -133.386,-143.249 0,-110.196 97.918,-147.969 131.609,-147.969 17.199,0 542.393,0.008 542.393,0.008" />
        <path
           inkscape:connector-curvature="0"
           id="path3359"
           style="fill:#e51b24;fill-opacity:1;fill-rule:nonzero;stroke:none"
           d="m 943.148,215.375 263.762,0.012 53.97,560.515 -263.767,-0.007 c 0,0 -47.136,-487.93 -53.965,-560.52 l 0,0" />
        <path
           inkscape:connector-curvature="0"
           id="path3361"
           style="fill:#ffffff;fill-opacity:1;fill-rule:nonzero;stroke:none"
           d="m 1826.66,544.605 c -1.61,-16.554 16.6,-25.46 33.82,-25.48 l 31.55,-0.027 c 1.87,4.55 2.98,9.715 3.61,16.132 1.68,17.586 -7.81,29.59 -35.27,29.618 -20.49,0.011 -32.39,-6.395 -33.71,-20.243 z m 86.23,-11.035 c -1.39,-14.484 -3.87,-25.449 -7.84,-36.621 l -146.93,0.125 2.15,22.141 46.93,-0.039 c 5.94,-0.012 14.08,-0.637 19.28,-1.887 l 0.04,0.422 c -12.19,5.379 -19.01,17.598 -17.54,32.703 2.34,24.406 20.86,37.832 51.58,37.813 35.26,-0.028 55.63,-20.528 52.33,-54.657" />
        <path
           inkscape:connector-curvature="0"
           id="path3363"
           style="fill:#ffffff;fill-opacity:1;fill-rule:nonzero;stroke:none"
           d="m 1835.15,652.016 c -1.19,-12.403 7.19,-21.102 21.15,-22.989 l 4.2,43.653 c -14.31,0.429 -24.1,-7.625 -25.35,-20.664 z m 42.56,41.964 -6.29,-65.371 c 23.11,-0.644 34.3,9.278 36.33,30.379 0.96,9.922 -0.1,20.274 -3.09,29.59 l 17.29,2.871 c 3.06,-10.75 4.28,-23.582 3.05,-36.406 -3.05,-31.648 -21.14,-49.219 -57,-49.188 -30.54,0.028 -51.99,17.625 -49.14,47.411 2.83,29.375 23.26,41.574 46.43,41.554 3.28,0 8.18,-0.226 12.42,-0.84" />
        <path
           inkscape:connector-curvature="0"
           id="path3365"
           style="fill:#ffffff;fill-opacity:1;fill-rule:nonzero;stroke:none"
           d="m 1852.03,772.055 c -5.86,-20.469 7.32,-30.41 37.85,-30.438 l 41.4,-0.031 -2.14,-22.137 -101.84,0.086 2.03,21.106 c 5.72,-0.012 14.69,-0.637 22.34,-2.09 l 0.04,0.41 c -13.3,4.57 -25,14.922 -21.09,34.16 l 21.41,-1.066" />
        <path
           inkscape:connector-curvature="0"
           id="path3367"
           style="fill:#ffffff;fill-opacity:1;fill-rule:nonzero;stroke:none"
           d="m 1936.13,792.035 -149.59,0.129 2.13,22.129 149.59,-0.129 -2.13,-22.129" />
        <path
           inkscape:connector-curvature="0"
           id="path3369"
           style="fill:#ffffff;fill-opacity:1;fill-rule:nonzero;stroke:none"
           d="m 1941.17,844.438 -101.84,0.089 2.13,22.129 101.86,-0.09 -2.15,-22.128 z m -118.81,11.269 c -0.74,-7.871 -7.31,-14.266 -15.1,-14.258 -7.58,0 -13.1,6.418 -12.36,14.289 0.74,7.657 7.52,14.051 15.1,14.051 7.57,-0.008 13.1,-6.426 12.36,-14.082" />
        <path
           inkscape:connector-curvature="0"
           id="path3371"
           style="fill:#ffffff;fill-opacity:1;fill-rule:nonzero;stroke:none"
           d="m 1952.4,961.039 -65.37,0.059 c -12.7,0.011 -20.63,-3.504 -21.76,-15.293 -1.49,-15.528 13.59,-26.903 34.1,-26.922 l 48.96,-0.039 -2.12,-22.141 -101.84,0.09 2.03,21.102 c 5.53,-0.008 14.3,-0.43 19.92,-1.465 l 0.02,0.207 c -12.54,6.004 -20.35,18.426 -18.67,35.808 2.25,23.371 17.7,30.598 35.53,30.578 l 71.31,-0.058 -2.11,-21.926" />
        <path
           inkscape:connector-curvature="0"
           id="path3373"
           style="fill:#e51b24;fill-opacity:1;fill-rule:nonzero;stroke:none"
           d="m 89.8867,531.93 -9.9765,-103.606 -19.375,0 9.9765,103.606 -32.8906,0 1.5781,16.347 85.3318,0 -1.578,-16.347 -33.0663,0" />
        <path
           inkscape:connector-curvature="0"
           id="path3375"
           style="fill:#e51b24;fill-opacity:1;fill-rule:nonzero;stroke:none"
           d="m 158.277,504.203 c -10.664,0 -18.906,-7.996 -21.691,-20.254 l 37.512,0 c 1.554,12.442 -4.621,20.254 -15.821,20.254 z m 32.868,-33.406 -56.172,0 c -2.477,-20.078 5.203,-28.965 23.34,-28.965 8.535,0 17.589,1.777 25.917,5.156 l 1.067,-14.758 c -9.59,-3.542 -20.809,-5.683 -31.836,-5.683 -27.195,0 -40.938,14.219 -37.938,45.324 2.547,26.473 19.59,46.551 45.184,46.551 25.246,0 34.121,-16.707 32.188,-36.785 -0.274,-2.844 -0.86,-7.11 -1.75,-10.84" />
        <path
           inkscape:connector-curvature="0"
           id="path3377"
           style="fill:#e51b24;fill-opacity:1;fill-rule:nonzero;stroke:none"
           d="m 242.141,426.91 c -22.754,0 -38.211,11.192 -35.184,42.645 2.707,28.078 19.066,48.515 48.578,48.515 7.461,0 14.656,-1.074 20.289,-3.379 l -4.75,-16.171 c -5.129,2.128 -11.554,3.73 -18.125,3.73 -14.929,0 -24.136,-12.441 -25.883,-30.555 -1.558,-16.183 2.957,-28.437 20.379,-28.437 6.934,0 13.625,1.238 19.403,3.906 l 1.316,-15.812 c -7.578,-3.028 -17.141,-4.442 -26.023,-4.442" />
        <path
           inkscape:connector-curvature="0"
           id="path3379"
           style="fill:#e51b24;fill-opacity:1;fill-rule:nonzero;stroke:none"
           d="m 340.879,428.324 5.461,56.692 c 1.058,11.015 -1.324,17.597 -11.461,17.597 -13.332,0 -24.457,-14.043 -26.168,-31.816 l -4.094,-42.473 -19.019,0 12.488,129.727 19.023,0 -3.867,-40.156 c -0.527,-5.516 -1.594,-12.793 -3.308,-17.774 l 0.332,-0.183 c 6.234,11.199 17.425,18.484 31.82,18.484 20.086,0 25.086,-12.793 23.598,-28.25 l -5.957,-61.848 -18.848,0" />
        <path
           inkscape:connector-curvature="0"
           id="path3381"
           style="fill:#e51b24;fill-opacity:1;fill-rule:nonzero;stroke:none"
           d="m 441.086,428.324 5.457,56.692 c 1.059,11.015 -1.324,17.597 -11.461,17.597 -13.328,0 -24.457,-14.043 -26.164,-31.816 l -4.094,-42.473 -19.023,0 8.508,88.321 18.132,0 c -0.464,-4.793 -1.558,-12.442 -2.929,-17.411 l 0.176,0 c 6.253,11.368 17.671,19.188 32.601,19.188 20.09,0 25.09,-12.793 23.602,-28.25 l -5.957,-61.848 -18.848,0" />
        <path
           inkscape:connector-curvature="0"
           id="path3383"
           style="fill:#e51b24;fill-opacity:1;fill-rule:nonzero;stroke:none"
           d="m 505.527,532.289 c -6.757,0 -11.765,5.149 -11.117,11.895 0.633,6.582 6.653,11.914 13.41,11.914 6.575,0 11.578,-5.332 10.946,-11.914 -0.637,-6.571 -6.664,-11.895 -13.239,-11.895 z m -19.609,-103.965 8.508,88.321 19.019,0 -8.504,-88.321 -19.023,0" />
        <path
           inkscape:connector-curvature="0"
           id="path3385"
           style="fill:#e51b24;fill-opacity:1;fill-rule:nonzero;stroke:none"
           d="m 545.941,426.547 c -6.757,0 -13.953,0.898 -19.308,2.492 l 2.972,16.172 c 5.301,-2.141 12.297,-3.379 19.047,-3.379 9.961,0 17.325,4.441 18.008,11.551 1.746,18.125 -38.074,7.109 -35.133,37.668 1.493,15.469 14.375,27.371 38.731,27.371 5.332,0 11.484,-0.711 16.539,-1.777 l -2.543,-15.274 c -4.996,1.594 -10.777,2.481 -16.473,2.481 -10.484,0 -15.871,-4.266 -16.519,-11.016 -1.676,-17.41 38.347,-7.82 35.492,-37.5 -1.613,-16.707 -17.344,-28.789 -40.813,-28.789" />
        <path
           inkscape:connector-curvature="0"
           id="path3387"
           style="fill:#e51b24;fill-opacity:1;fill-rule:nonzero;stroke:none"
           d="m 638.352,426.91 c -22.754,0 -38.211,11.192 -35.184,42.645 2.707,28.078 19.066,48.515 48.578,48.515 7.465,0 14.656,-1.074 20.289,-3.379 l -4.75,-16.171 c -5.129,2.128 -11.555,3.73 -18.125,3.73 -14.93,0 -24.137,-12.441 -25.883,-30.555 -1.558,-16.183 2.957,-28.437 20.379,-28.437 6.934,0 13.625,1.238 19.403,3.906 l 1.316,-15.812 c -7.578,-3.028 -17.141,-4.442 -26.023,-4.442" />
        <path
           inkscape:connector-curvature="0"
           id="path3389"
           style="fill:#e51b24;fill-opacity:1;fill-rule:nonzero;stroke:none"
           d="m 737.09,428.324 5.461,56.692 c 1.058,11.015 -1.324,17.597 -11.461,17.597 -13.332,0 -24.457,-14.043 -26.168,-31.816 l -4.094,-42.473 -19.019,0 12.488,129.727 19.023,0 -3.867,-40.156 c -0.527,-5.516 -1.594,-12.793 -3.308,-17.774 l 0.332,-0.183 c 6.234,11.199 17.425,18.484 31.82,18.484 20.086,0 25.086,-12.793 23.598,-28.25 l -5.957,-61.848 -18.848,0" />
        <path
           inkscape:connector-curvature="0"
           id="path3391"
           style="fill:#e51b24;fill-opacity:1;fill-rule:nonzero;stroke:none"
           d="m 821.703,504.203 c -10.664,0 -18.906,-7.996 -21.687,-20.254 l 37.507,0 c 1.559,12.442 -4.617,20.254 -15.82,20.254 z m 32.867,-33.406 -56.172,0 c -2.476,-20.078 5.207,-28.965 23.34,-28.965 8.535,0 17.594,1.777 25.918,5.156 l 1.071,-14.758 c -9.59,-3.542 -20.813,-5.683 -31.836,-5.683 -27.2,0 -40.938,14.219 -37.942,45.324 2.551,26.473 19.59,46.551 45.188,46.551 25.242,0 34.121,-16.707 32.187,-36.785 -0.273,-2.844 -0.859,-7.11 -1.754,-10.84" />
        <path
           inkscape:connector-curvature="0"
           id="path3393"
           style="fill:#e51b24;fill-opacity:1;fill-rule:nonzero;stroke:none"
           d="m 41.9492,213.266 c -37.68748,0 -43.70311,20.617 -41.578106,42.656 l 7.613286,79.074 19.37502,0 -7.4766,-77.656 c -1.539,-15.988 2.6289,-28.078 24.8438,-28.078 19.5586,0 29.2343,8.164 31.3906,30.566 l 7.2383,75.168 19.0235,0 -7.1017,-73.75 c -3.0781,-31.984 -21.8632,-47.98 -53.3281,-47.98" />
        <path
           inkscape:connector-curvature="0"
           id="path3395"
           style="fill:#e51b24;fill-opacity:1;fill-rule:nonzero;stroke:none"
           d="m 172.688,215.043 5.457,56.691 c 1.058,11.016 -1.325,17.598 -11.461,17.598 -13.329,0 -24.457,-14.043 -26.172,-31.816 l -4.086,-42.473 -19.024,0 8.504,88.32 18.137,0 c -0.465,-4.793 -1.563,-12.441 -2.93,-17.41 l 0.176,0 c 6.254,11.367 17.672,19.188 32.602,19.188 20.089,0 25.086,-12.801 23.597,-28.25 l -5.957,-61.848 -18.843,0" />
        <path
           inkscape:connector-curvature="0"
           id="path3397"
           style="fill:#e51b24;fill-opacity:1;fill-rule:nonzero;stroke:none"
           d="m 237.129,319.008 c -6.758,0 -11.77,5.148 -11.117,11.894 0.633,6.582 6.652,11.914 13.414,11.914 6.57,0 11.574,-5.332 10.941,-11.914 -0.637,-6.57 -6.668,-11.894 -13.238,-11.894 z m -19.609,-103.965 8.503,88.32 19.028,0 -8.508,-88.32 -19.023,0" />
        <path
           inkscape:connector-curvature="0"
           id="path3399"
           style="fill:#e51b24;fill-opacity:1;fill-rule:nonzero;stroke:none"
           d="m 304.27,215.043 -19.375,0 -24.563,88.32 20.977,0 12.031,-46.738 c 1.371,-6.043 2.91,-12.266 3.949,-18.125 l 0.176,0 c 1.945,5.508 4.508,11.73 6.832,17.422 l 21.457,47.441 20.437,0 -41.921,-88.32" />
        <path
           inkscape:connector-curvature="0"
           id="path3401"
           style="fill:#e51b24;fill-opacity:1;fill-rule:nonzero;stroke:none"
           d="m 390.859,290.922 c -10.664,0 -18.902,-7.996 -21.683,-20.254 l 37.508,0 c 1.558,12.441 -4.621,20.254 -15.825,20.254 z m 32.868,-33.406 -56.172,0 c -2.473,-20.09 5.211,-28.965 23.343,-28.965 8.536,0 17.594,1.777 25.918,5.156 l 1.071,-14.758 c -9.59,-3.543 -20.813,-5.683 -31.836,-5.683 -27.199,0 -40.938,14.218 -37.942,45.312 2.551,26.485 19.59,46.563 45.188,46.563 25.242,0 34.121,-16.707 32.187,-36.786 -0.273,-2.843 -0.859,-7.109 -1.757,-10.839" />
        <path
           inkscape:connector-curvature="0"
           id="path3403"
           style="fill:#e51b24;fill-opacity:1;fill-rule:nonzero;stroke:none"
           d="m 493.676,286.305 c -17.27,3.379 -26.977,-8.879 -29.528,-35.364 l -3.457,-35.898 -19.019,0 8.504,88.32 18.137,0 c -0.481,-4.968 -1.774,-12.793 -3.665,-19.539 l 0.352,0 c 5.055,11.903 15.012,22.918 31.363,21.141 l -2.687,-18.66" />
        <path
           inkscape:connector-curvature="0"
           id="path3405"
           style="fill:#e51b24;fill-opacity:1;fill-rule:nonzero;stroke:none"
           d="m 520.992,213.266 c -6.758,0 -13.957,0.89 -19.312,2.492 l 2.972,16.172 c 5.305,-2.141 12.301,-3.379 19.047,-3.379 9.961,0 17.324,4.441 18.012,11.551 1.742,18.125 -38.078,7.109 -35.133,37.668 1.488,15.468 14.375,27.371 38.731,27.371 5.332,0 11.484,-0.711 16.539,-1.778 l -2.551,-15.281 c -4.988,1.602 -10.777,2.488 -16.469,2.488 -10.488,0 -15.871,-4.265 -16.519,-11.015 -1.676,-17.41 38.347,-7.821 35.492,-37.5 -1.61,-16.707 -17.344,-28.789 -40.809,-28.789" />
        <path
           inkscape:connector-curvature="0"
           id="path3407"
           style="fill:#e51b24;fill-opacity:1;fill-rule:nonzero;stroke:none"
           d="m 598.586,319.008 c -6.762,0 -11.77,5.148 -11.121,11.894 0.637,6.582 6.656,11.914 13.414,11.914 6.57,0 11.578,-5.332 10.941,-11.914 -0.632,-6.57 -6.664,-11.894 -13.234,-11.894 z m -19.609,-103.965 8.503,88.32 19.024,0 -8.508,-88.32 -19.019,0" />
        <path
           inkscape:connector-curvature="0"
           id="path3409"
           style="fill:#e51b24;fill-opacity:1;fill-rule:nonzero;stroke:none"
           d="m 654.375,213.441 c -18.84,0 -23.828,7.286 -21.93,27.012 l 4.641,48.156 -16.887,0 1.422,14.754 16.887,0 2.699,28.078 19.52,5.157 -3.2,-33.235 23.11,0 -1.422,-14.754 -23.106,0 -4.074,-42.296 c -1.269,-13.145 1.055,-16.7 9.942,-16.7 3.918,0 7.703,0.539 10.961,1.25 l 0.132,-15.281 c -5.453,-1.25 -12.828,-2.141 -18.695,-2.141" />
        <path
           inkscape:connector-curvature="0"
           id="path3411"
           style="fill:#e51b24;fill-opacity:1;fill-rule:nonzero;stroke:none"
           d="m 752.836,320.063 c -6.043,0 -10.387,4.804 -9.805,10.839 0.567,5.871 5.832,10.664 11.875,10.664 5.86,0 10.207,-4.793 9.641,-10.664 -0.582,-6.035 -5.852,-10.839 -11.711,-10.839 z m -35.02,0 c -6.043,0 -10.199,4.804 -9.617,10.839 0.567,5.871 5.645,10.664 11.688,10.664 6.047,0 10.383,-4.793 9.816,-10.664 -0.582,-6.035 -5.84,-10.839 -11.887,-10.839 z m 24.895,-64.5 c -26.309,0 -34.277,-7.11 -35.082,-15.461 -0.652,-6.758 3.469,-11.903 10.941,-11.903 12.793,0 22.703,12.442 23.914,25.047 l 0.227,2.317 z m -2.652,-40.52 c 0.546,5.684 1.289,11.555 2.461,16.348 l -0.165,0.175 c -5.269,-10.476 -17.046,-18.3 -31.089,-18.3 -15.11,0 -23.731,10.129 -22.344,24.523 1.914,19.902 22.664,30.566 55.019,30.566 l 0.36,3.731 c 1.195,12.441 -2.68,18.301 -15.656,18.301 -8.176,0 -19.098,-2.657 -27.262,-6.223 l -1.957,14.758 c 9.226,3.555 21.574,6.219 33.304,6.219 25.782,0 32.645,-11.727 30.801,-30.918 l -3.371,-35.008 c -0.734,-7.649 -1.433,-16.699 -1.793,-24.172 l -18.308,0" />
        <path
           inkscape:connector-curvature="0"
           id="path3413"
           style="fill:#e51b24;fill-opacity:1;fill-rule:nonzero;stroke:none"
           d="m 813.953,213.441 c -18.836,0 -23.824,7.286 -21.926,27.012 l 4.637,48.156 -16.883,0 1.418,14.754 16.887,0 2.699,28.078 19.524,5.157 -3.2,-33.235 23.106,0 -1.422,-14.754 -23.105,0 -4.071,-42.296 c -1.269,-13.145 1.055,-16.7 9.942,-16.7 3.914,0 7.699,0.539 10.961,1.25 l 0.132,-15.281 c -5.457,-1.25 -12.828,-2.141 -18.699,-2.141" />
        <path
           inkscape:connector-curvature="0"
           id="path3415"
           style="fill:#e51b24;fill-opacity:1;fill-rule:nonzero;stroke:none"
           d="m 427.379,106.98 c -5.156,0 -10.332,-0.191 -14.613,-0.359 L 409.32,70.8906 c 3.192,-0.1718 6.207,-0.1718 10.297,-0.1718 17.949,0 27.016,7.2929 28.176,19.371 0.941,9.7813 -3.883,16.8902 -20.414,16.8902 z m -8.793,-50.6597 c -1.777,0 -8,0 -10.68,-0.1719 l -3.703,-38.3867 c 2.988,-0.3398 9.52,-0.8828 14.137,-0.8828 17.598,0 26.621,8.7109 27.75,20.4297 1.297,13.5195 -9.547,19.0117 -27.504,19.0117 z m -2.82,-55.08202 c -8.172,0 -19.161,0.36328 -32.473,0.53125 L 394.844,121.719 c 9.437,0.179 22.801,0.543 37.375,0.543 25.601,0 38.086,-10.66 36.301,-29.1409 C 467.34,80.8516 459.223,70.3789 446.34,65.75 l -0.035,-0.3516 C 459.945,63.0781 468.141,52.2383 466.773,38.0195 465.113,20.7891 451.137,1.23828 415.766,1.23828" />
        <path
           inkscape:connector-curvature="0"
           id="path3417"
           style="fill:#e51b24;fill-opacity:1;fill-rule:nonzero;stroke:none"
           d="m 526.234,77.6484 c -10.664,0 -18.906,-8 -21.687,-20.25 l 37.508,0 c 1.558,12.4414 -4.617,20.25 -15.821,20.25 z m 32.868,-33.4101 -56.172,0 c -2.477,-20.0781 5.207,-28.957 23.34,-28.957 8.535,0 17.593,1.7773 25.918,5.1484 l 1.07,-14.75001 C 543.668,2.12891 532.445,0 521.422,0 494.223,0 480.484,14.2109 483.48,45.3086 c 2.551,26.4805 19.59,46.5625 45.188,46.5625 25.242,0 34.121,-16.7109 32.187,-36.793 -0.273,-2.8398 -0.859,-7.1093 -1.753,-10.8398" />
        <path
           inkscape:connector-curvature="0"
           id="path3419"
           style="fill:#e51b24;fill-opacity:1;fill-rule:nonzero;stroke:none"
           d="M 629.039,73.0313 C 611.77,76.4102 602.063,64.1484 599.512,37.6719 l -3.457,-35.90237 -19.024,0 8.504,88.32027 18.137,0 c -0.481,-4.9687 -1.77,-12.789 -3.66,-19.5507 l 0.347,0 c 5.055,11.9218 15.012,22.9297 31.364,21.1406 l -2.684,-18.6484" />
        <path
           inkscape:connector-curvature="0"
           id="path3421"
           style="fill:#e51b24;fill-opacity:1;fill-rule:nonzero;stroke:none"
           d="M 639.52,1.76953 652.012,131.5 l 19.023,0 -12.488,-129.73047 -19.027,0" />
        <path
           inkscape:connector-curvature="0"
           id="path3423"
           style="fill:#e51b24;fill-opacity:1;fill-rule:nonzero;stroke:none"
           d="m 704.309,105.738 c -6.758,0 -11.77,5.141 -11.121,11.891 0.636,6.582 6.656,11.918 13.414,11.918 6.574,0 11.578,-5.336 10.941,-11.918 -0.633,-6.57 -6.664,-11.891 -13.234,-11.891 z M 684.695,1.76953 l 8.508,88.32027 19.024,0 -8.504,-88.32027 -19.028,0" />
        <path
           inkscape:connector-curvature="0"
           id="path3425"
           style="fill:#e51b24;fill-opacity:1;fill-rule:nonzero;stroke:none"
           d="m 785.051,1.76953 5.457,56.69137 c 1.058,11.0196 -1.324,17.5977 -11.461,17.5977 -13.328,0 -24.457,-14.0469 -26.164,-31.8203 l -4.094,-42.46877 -19.023,0 8.504,88.32027 18.136,0 c -0.465,-4.8007 -1.558,-12.4414 -2.929,-17.4179 l 0.175,0 c 6.254,11.3789 17.672,19.1992 32.602,19.1992 20.09,0 25.09,-12.8008 23.601,-28.25 l -5.96,-61.85157 -18.844,0" />
      </g>
    </g>
    <text
       xml:space="preserve"
       style="font-style:normal;font-variant:normal;font-weight:normal;font-stretch:normal;font-size:15px;line-height:125%;font-family:'The Sans Semi Bold-';-inkscape-font-specification:'The Sans Semi Bold-, Normal';text-align:end;letter-spacing:0px;word-spacing:0px;writing-mode:lr-tb;text-anchor:end;fill:#000000;fill-opacity:1;stroke:none;stroke-width:1px;stroke-linecap:butt;stroke-linejoin:miter;stroke-opacity:1"
       x="697.34845"
       y="294.36218"
       id="text3381"
       sodipodi:linespacing="125%"><tspan
         sodipodi:role="line"
         id="tspan3383"
         x="697.34845"
         y="294.36218"
         style="font-style:normal;font-variant:normal;font-weight:normal;font-stretch:normal;font-size:60px;line-height:125%;font-family:'The Sans Semi Bold-';-inkscape-font-specification:'The Sans Semi Bold-, Normal';text-align:end;writing-mode:lr-tb;text-anchor:end">Bachelorarbeit</tspan></text>
    <rect
       style="opacity:0.5;fill:#000000;fill-opacity:1;fill-rule:evenodd;stroke:#ff0000;stroke-width:1;stroke-linecap:round;stroke-miterlimit:4;stroke-dasharray:none;stroke-dashoffset:0;stroke-opacity:1"
       id="rect3385"
       width="324"
       height="1180"
       x="-74"
       y="-81.637794" />
    <text
       xml:space="preserve"
       style="font-style:normal;font-variant:normal;font-weight:normal;font-stretch:normal;font-size:15px;line-height:125%;font-family:'The Sans Semi Bold-';-inkscape-font-specification:'The Sans Semi Bold-, Normal';text-align:end;letter-spacing:0px;word-spacing:0px;writing-mode:lr-tb;text-anchor:end;fill:#000000;fill-opacity:1;stroke:none;stroke-width:1px;stroke-linecap:butt;stroke-linejoin:miter;stroke-opacity:1"
       x="696"
       y="566.36218"
       id="text3387"
       sodipodi:linespacing="125%"><tspan
         sodipodi:role="line"
         id="tspan3389"
         x="696"
         y="566.36218"
         style="font-style:normal;font-variant:normal;font-weight:normal;font-stretch:normal;font-size:22.5px;line-height:125%;font-family:'The Sans Semi Bold-';-inkscape-font-specification:'The Sans Semi Bold-, Normal';text-align:end;writing-mode:lr-tb;text-anchor:end">Thorsten Matthias Lucke</tspan></text>
    <rect
       y="-81.637794"
       x="-74"
       height="1180"
       width="324"
       id="rect4251"
       style="opacity:1;fill:none;fill-opacity:1;fill-rule:evenodd;stroke:#cc0000;stroke-width:10;stroke-linecap:round;stroke-miterlimit:4;stroke-dasharray:none;stroke-dashoffset:0;stroke-opacity:1" />
    <path
       style="fill:none;fill-rule:evenodd;stroke:#000000;stroke-width:3;stroke-linecap:butt;stroke-linejoin:miter;stroke-miterlimit:4;stroke-dasharray:none;stroke-opacity:1"
       d="m 712,400.3622 0,130 -434,0"
       id="path4257"
       inkscape:connector-curvature="0"
       sodipodi:nodetypes="ccc" />
    <text
       xml:space="preserve"
       style="font-style:normal;font-variant:normal;font-weight:normal;font-stretch:normal;font-size:15px;line-height:125%;font-family:'The Sans Semi Bold-';-inkscape-font-specification:'The Sans Semi Bold-, Normal';text-align:end;letter-spacing:0px;word-spacing:0px;writing-mode:lr-tb;text-anchor:end;fill:#000000;fill-opacity:1;stroke:none;stroke-width:1px;stroke-linecap:butt;stroke-linejoin:miter;stroke-opacity:1"
       x="410"
       y="76.362206"
       id="text4259"
       sodipodi:linespacing="125%"><tspan
         sodipodi:role="line"
         id="tspan4261"
         x="410"
         y="76.362206" /></text>
  </g>
</svg>
